{"title":"3 Days To Kill NEW SOURCE 720p HDCAM V2 x264 Pimp4003","uid":9668534,"size":1926338027,"categoryP":"video","categoryS":"movies","magnet":"?xt=urn:btih:7e177437fd3d07ac673d94a01af6d8fe7560b00a&amp;dn=3+Days+To+Kill+NEW+SOURCE+720p+HDCAM+V2+x264+Pimp4003&amp;tr=udp%3A%2F%2Ftracker.openbittorrent.com%3A80&amp;tr=udp%3A%2F%2Fopen.demonii.com%3A1337&amp;tr=udp%3A%2F%2Ftracker.coppersurfer.tk%3A6969&amp;tr=udp%3A%2F%2Fexodus.desync.com%3A6969","seeders":6,"leechers":0,"uploader":"shawnmurthy","files":-1,"time":1393424257,"description":"Get all Pimp4003 newest releases first at \n &lt;a href=&quot;\nhttp://WWW.PIMP4003.NET&quot; rel=&quot;nofollow&quot; target=&quot;_NEW&quot;&gt;\nhttp://WWW.PIMP4003.NET&lt;/a&gt; with VIP downloads speed\n\nRegister here and you can chat, request movies, view upcoming uploads and much more\n\nUPLOAD UNLIMITED IMAGES AND UP TO 10MB IN FILE SIZES FOR FREE....\n &lt;a href=&quot;\nhttp://www.piczhub.com&quot; rel=&quot;nofollow&quot; target=&quot;_NEW&quot;&gt;\nhttp://www.piczhub.com&lt;/a&gt;\n\nPIMP4003 AND PIMPRG PRESENTS\n\n3 Days To Kill NEW SOURCE 720p HDCAM V2 x264 Pimp4003\n &lt;a href=&quot;\nhttp://www.imdb.com/title/tt2172934/&quot; rel=&quot;nofollow&quot; target=&quot;_NEW&quot;&gt;\nhttp://www.imdb.com/title/tt2172934/&lt;/a&gt;\n\nA dying CIA agent trying to reconnect with his estranged daughter is offered an experimental drug that could save his life in exchange for one last assignment.\n\nDirector: McG\nWriters: Adi Hasak (screenplay), Luc Besson (screenplay), 1 more credit Â»\nStars: Kevin Costner, Hailee Steinfeld, Connie Nielsen | See full cast and crew Â»\n\nSOURCE IS MATINE...THANKS TO YOU GUYS...\n\nBRIGHTENED THE VIDEO IT HAD SOME FLICKER IT IN...AUDIO WAS A LITTLE HOLLOW MADE IT BETTER...ALSO 3GB FOR HD CAM TO BIG SO REDUCED BUT ALSO INCREASED THE RESOLUTION...IT LOOKS BETTER...ENJOY PIMP4003\n\nVideo\nID                                       : 1\nFormat                                   : AVC\nFormat/Info                              : Advanced Video Codec\nFormat profile                           : &lt;a class=&quot;__cf_email__&quot; href=&quot;/cdn-cgi/l/email-protection&quot; data-cfemail=&quot;d79fbeb0bf979be4f9e6&quot;&gt;[email&amp;#160;protected]&lt;/a&gt;&lt;script cf-hash='f9e31' type=&quot;text/javascript&quot;&gt;\n/* &lt;![CDATA[ */!function(){try{var t=&quot;currentScript&quot;in document?document.currentScript:function(){for(var t=document.getElementsByTagName(&quot;script&quot;),e=t.length;e--;)if(t[e].getAttribute(&quot;cf-hash&quot;))return t[e]}();if(t&amp;&amp;t.previousSibling){var e,r,n,i,c=t.previousSibling,a=c.getAttribute(&quot;data-cfemail&quot;);if(a){for(e=&quot;&quot;,r=parseInt(a.substr(0,2),16),n=2;a.length-n;n+=2)i=parseInt(a.substr(n,2),16)^r,e+=String.fromCharCode(i);e=document.createTextNode(e),c.parentNode.replaceChild(e,c)}}}catch(u){}}();/* ]]&gt; */&lt;/script&gt;\nFormat settings, CABAC                   : Yes\nFormat settings, ReFrames                : 5 frames\nFormat settings, GOP                     : M=4, N=13\nCodec ID                                 : avc1\nCodec ID/Info                            : Advanced Video Coding\nDuration                                 : 1h 50mn\nBit rate                                 : 2 144 Kbps\nWidth                                    : 1 280 pixels\nHeight                                   : 338 pixels\nDisplay aspect ratio                     : 3.787\nFrame rate mode                          : Constant\nFrame rate                               : 25.000 fps\nColor space                              : YUV\nChroma subsampling                       : 4:2:0\nBit depth                                : 8 bits\nScan type                                : Progressive\nBits/(Pixel*Frame)                       : 0.198\nStream size                              : 1.66 GiB (93%)\nWriting library                          : x264 core 110\nEncoding settings                        : cabac=1 / ref=5 / deblock=1:0:0 / analyse=0x3:0x133 / me=hex / subme=8 / psy=1 / psy_rd=1.00:0.00 / mixed_ref=1 / me_range=16 / chroma_me=0 / trellis=1 / 8x8dct=1 / cqm=0 / deadzone=21,11 / fast_pskip=1 / chroma_qp_offset=-2 / threads=8 / sliced_threads=0 / nr=0 / decimate=1 / interlaced=0 / constrained_intra=0 / bframes=3 / b_pyramid=0 / b_adapt=0 / b_bias=0 / direct=3 / weightb=1 / open_gop=0 / weightp=0 / keyint=13 / keyint_min=7 / scenecut=0 / intra_refresh=0 / rc_lookahead=13 / rc=abr / mbtree=1 / bitrate=2144 / ratetol=1.0 / qcomp=0.00 / qpmin=10 / qpmax=51 / qpstep=4 / ip_ratio=1.41 / aq=1:1.00\n\nAudio\nID                                       : 2\nFormat                                   : AAC\nFormat/Info                              : Advanced Audio Codec\nFormat profile                           : LC\nCodec ID                                 : 40\nDuration                                 : 1h 50mn\nBit rate mode                            : Variable\nBit rate                                 : 165 Kbps\nChannel(s)                               : 2 channels\nChannel positions                        : Front: L R\nSampling rate                            : 48.0 KHz\nCompression mode                         : Lossy\nStream size                              : 131 MiB (7%)\n &lt;a href=&quot;\nhttp://someimage.com/mgjNI2A&quot; rel=&quot;nofollow&quot; target=&quot;_NEW&quot;&gt;\nhttp://someimage.com/mgjNI2A&lt;/a&gt; &lt;a href=&quot;\nhttp://someimage.com/DuCAmSF&quot; rel=&quot;nofollow&quot; target=&quot;_NEW&quot;&gt;\nhttp://someimage.com/DuCAmSF&lt;/a&gt; &lt;a href=&quot;\nhttp://someimage.com/ByqjBvO&quot; rel=&quot;nofollow&quot; target=&quot;_NEW&quot;&gt;\nhttp://someimage.com/ByqjBvO&lt;/a&gt; &lt;a href=&quot;\nhttp://someimage.com/HZ7syHz&quot; rel=&quot;nofollow&quot; target=&quot;_NEW&quot;&gt;\nhttp://someimage.com/HZ7syHz&lt;/a&gt; &lt;a href=&quot;\nhttp://someimage.com/net6fKE&quot; rel=&quot;nofollow&quot; target=&quot;_NEW&quot;&gt;\nhttp://someimage.com/net6fKE&lt;/a&gt; &lt;a href=&quot;\nhttp://someimage.com/qk0COzg&quot; rel=&quot;nofollow&quot; target=&quot;_NEW&quot;&gt;\nhttp://someimage.com/qk0COzg&lt;/a&gt; &lt;a href=&quot;\nhttp://someimage.com/BMsmlIs&quot; rel=&quot;nofollow&quot; target=&quot;_NEW&quot;&gt;\nhttp://someimage.com/BMsmlIs&lt;/a&gt; &lt;a href=&quot;\nhttp://someimage.com/IPOg8Zf&quot; rel=&quot;nofollow&quot; target=&quot;_NEW&quot;&gt;\nhttp://someimage.com/IPOg8Zf&lt;/a&gt;\n","torrent":{"xt":"urn:btih:7e177437fd3d07ac673d94a01af6d8fe7560b00a","amp;dn":"3+Days+To+Kill+NEW+SOURCE+720p+HDCAM+V2+x264+Pimp4003","amp;tr":["udp%3A%2F%2Ftracker.openbittorrent.com%3A80","udp%3A%2F%2Fopen.demonii.com%3A1337","udp%3A%2F%2Ftracker.coppersurfer.tk%3A6969","udp%3A%2F%2Fexodus.desync.com%3A6969"],"infoHash":"7e177437fd3d07ac673d94a01af6d8fe7560b00a","infoHashBuffer":{"type":"Buffer","data":[126,23,116,55,253,61,7,172,103,61,148,160,26,246,216,254,117,96,176,10]},"announce":[],"urlList":[]}}